<?xml version="1.0" encoding="UTF-8"?>
<svg id="Layer_2" data-name="Layer 2" xmlns="http://www.w3.org/2000/svg" viewBox="0 0 735.32 735.32">
  <defs>
    <style>
      .cls-1 {
        fill: #bc77ff;
      }

      .cls-2 {
        fill: #fff;
      }
    </style>
  </defs>
  <g id="Layer_1-2" data-name="Layer 1">
    <g>
      <circle class="cls-2" cx="367.66" cy="367.66" r="367.66"/>
      <path class="cls-1" d="M385.51,461.97l79.75-45.5.14-119.15-100.47-57.55-99.25,57.82v117.94l107.37,63.5,56.33,32.09s15.71,11.51,43.46,13.81c0,0,17.33,3.25,53.48-7.99,0,0-2.17,13.81-18.14,23.7-15.98,9.88-16.11,19.36-54.7,27.49-38.59,8.12-76.64-14.62-81.38-16.93l-4.74-2.3-91.94-53.62-70.95-43.19v-191.6l161.13-93.43,160.72,93.43v192.41l-79.35,46.44-61.47-37.37Z"/>
    </g>
  </g>
</svg>