<?xml version="1.0" encoding="UTF-8"?>
<svg id="Layer_2" data-name="Layer 2" xmlns="http://www.w3.org/2000/svg" viewBox="0 0 836.63 247.73">
  <defs>
    <style>
      .cls-1 {
        fill: #bc77ff;
      }

      .cls-2 {
        fill: #fff;
      }
    </style>
  </defs>
  <g id="Layer_1-2" data-name="Layer 1">
    <g>
      <g>
        <circle class="cls-1" cx="123.86" cy="123.86" r="123.86"/>
        <path class="cls-2" d="M129.88,155.64l26.87-15.33.05-40.14-33.85-19.39-33.44,19.48v39.73l36.17,21.39,18.98,10.81s5.29,3.88,14.64,4.65c0,0,5.84,1.09,18.02-2.69,0,0-.73,4.65-6.11,7.98-5.38,3.33-5.43,6.52-18.43,9.26-13,2.74-25.82-4.93-27.42-5.7l-1.6-.78-30.97-18.06-23.9-14.55v-64.55l54.28-31.48,54.15,31.48v64.82l-26.73,15.65-20.71-12.59Z"/>
      </g>
      <g>
        <path class="cls-2" d="M375.86,167.42l37.15-21.19.06-55.5-46.8-26.8-46.23,26.93v54.93l50.01,29.58,26.24,14.95s7.32,5.36,20.25,6.43c0,0,8.07,1.51,24.91-3.72,0,0-1.01,6.43-8.45,11.04-7.44,4.6-7.51,9.02-25.48,12.8-17.97,3.78-35.7-6.81-37.9-7.88l-2.21-1.07-42.82-24.98-33.05-20.12v-89.24l75.05-43.52,74.86,43.52v89.62l-36.96,21.63-28.63-17.41Z"/>
        <g>
          <path class="cls-2" d="M544.62,159.31l-6.66-30.28c-.36-1.81-.96-4.48-1.78-8.01-.83-3.54-1.72-7.33-2.67-11.38s-1.83-7.81-2.63-11.27c-.8-3.46-1.38-5.99-1.74-7.59h-.7c-.36,1.6-.93,4.13-1.7,7.59-.77,3.46-1.64,7.23-2.59,11.31-.96,4.08-1.85,7.91-2.67,11.5-.83,3.59-1.45,6.31-1.86,8.17l-6.97,29.97h-25.4l-24.62-86.57h23.54l9.99,38.33c.67,2.68,1.32,5.87,1.94,9.56s1.17,7.25,1.66,10.69.86,6.16,1.12,8.17h.62c.1-1.5.32-3.48.66-5.96.34-2.48.72-5.05,1.16-7.71.44-2.66.85-5.06,1.24-7.2.39-2.14.68-3.6.89-4.38l10.69-41.51h26.02l10.14,41.51c.36,1.5.84,3.87,1.43,7.12.59,3.25,1.12,6.6,1.59,10.03.46,3.43.72,6.13.77,8.09h.62c.21-1.75.57-4.36,1.08-7.82.52-3.46,1.12-7.09,1.82-10.88.7-3.8,1.41-7.03,2.13-9.72l10.38-38.33h23.15l-24.93,86.57h-25.71Z"/>
          <path class="cls-2" d="M621.05,38.82c3.51,0,6.53.81,9.06,2.44,2.53,1.63,3.79,4.66,3.79,9.1s-1.27,7.42-3.79,9.1c-2.53,1.68-5.55,2.52-9.06,2.52s-6.6-.84-9.1-2.52c-2.5-1.68-3.76-4.71-3.76-9.1s1.25-7.47,3.76-9.1c2.5-1.63,5.54-2.44,9.1-2.44ZM632.82,72.74v86.57h-23.62v-86.57h23.62Z"/>
          <path class="cls-2" d="M705.76,71.11c9.76,0,17.64,3.79,23.66,11.38,6.01,7.59,9.02,18.71,9.02,33.37,0,9.81-1.42,18.06-4.26,24.74-2.84,6.69-6.76,11.73-11.77,15.14-5.01,3.41-10.76,5.11-17.27,5.11-4.18,0-7.77-.53-10.76-1.59-2.99-1.06-5.55-2.43-7.67-4.1-2.12-1.68-3.95-3.47-5.5-5.38h-1.24c.41,2.07.72,4.18.93,6.35.21,2.17.31,4.28.31,6.35v34.92h-23.62v-124.67h19.2l3.33,11.23h1.08c1.55-2.32,3.43-4.46,5.65-6.43,2.22-1.96,4.89-3.52,8.01-4.69,3.12-1.16,6.75-1.74,10.88-1.74ZM698.17,90.01c-4.13,0-7.41.85-9.83,2.56-2.43,1.7-4.19,4.26-5.3,7.67-1.11,3.41-1.72,7.72-1.82,12.93v2.56c0,5.58.53,10.3,1.59,14.17,1.06,3.87,2.84,6.81,5.34,8.83,2.5,2.01,5.95,3.02,10.34,3.02,3.61,0,6.58-1.01,8.91-3.02,2.32-2.01,4.07-4.97,5.23-8.87,1.16-3.9,1.74-8.66,1.74-14.29,0-8.47-1.32-14.84-3.95-19.13-2.63-4.28-6.71-6.43-12.23-6.43Z"/>
          <path class="cls-2" d="M836.63,115.87c0,7.23-.97,13.63-2.9,19.2-1.94,5.58-4.75,10.29-8.44,14.13-3.69,3.85-8.13,6.75-13.32,8.71-5.19,1.96-11.03,2.94-17.54,2.94-6.09,0-11.68-.98-16.76-2.94-5.09-1.96-9.5-4.87-13.24-8.71-3.74-3.85-6.63-8.56-8.67-14.13-2.04-5.58-3.06-11.98-3.06-19.2,0-9.6,1.7-17.73,5.11-24.39,3.41-6.66,8.26-11.72,14.56-15.18,6.3-3.46,13.81-5.19,22.53-5.19,8.1,0,15.29,1.73,21.57,5.19,6.27,3.46,11.2,8.52,14.79,15.18,3.59,6.66,5.38,14.79,5.38,24.39ZM776.77,115.87c0,5.68.62,10.45,1.86,14.33s3.17,6.79,5.81,8.75c2.63,1.96,6.07,2.94,10.3,2.94s7.58-.98,10.18-2.94c2.61-1.96,4.52-4.88,5.73-8.75,1.21-3.87,1.82-8.65,1.82-14.33s-.61-10.49-1.82-14.29c-1.21-3.8-3.14-6.65-5.77-8.56-2.63-1.91-6.07-2.87-10.3-2.87-6.25,0-10.78,2.14-13.59,6.43-2.81,4.29-4.22,10.71-4.22,19.28Z"/>
        </g>
      </g>
    </g>
  </g>
</svg>